<svg width="1440" height="585" viewBox="0 0 1440 585" fill="none" xmlns="http://www.w3.org/2000/svg">
<g opacity="0.33">
<path d="M-19 408.617L-11.6312 417.383L-4.26235 425.855L3.10647 431.715L10.4753 433.661L17.8466 432.099L25.2154 428.803L32.5842 425.779L39.953 424.385L47.3219 425.057L54.6907 427.585L62.0595 431.496L69.4308 436.288L76.7996 441.557L84.1684 447.012L91.5373 452.442L98.9061 457.7L106.275 462.696L113.644 467.356L121.015 471.626L128.384 475.466L135.753 478.842L143.121 481.728L150.49 484.126L157.859 486.072L165.23 487.67L172.599 489.248L179.968 491.54L187.337 495.528L194.706 501.43L202.075 507.598L209.443 511.57L216.815 512.516L224.183 511.294L231.552 508.536L238.921 504.708L246.29 502.094L253.659 506.328L261.028 523.046L268.399 546.674L275.768 557.576L283.137 543.694L290.505 517.116L297.874 495.834L305.243 483.694L312.614 476.366L319.983 471.08L327.352 467.056L334.721 463.794L342.09 460.83L349.458 457.87L356.827 454.792L364.198 451.578L371.567 448.238L378.936 444.824L386.305 441.393L393.674 438.012L401.043 434.754L408.411 431.684L415.783 428.871L423.152 426.379L430.52 424.285L437.889 422.699L445.258 421.789L452.627 421.835L459.998 423.277L467.367 426.699L474.736 432.809L482.105 442.255L489.473 455.412L496.842 472.166L504.211 491.854L511.582 513.456L518.951 535.702L526.32 556.714L533.689 573.514L541.058 582.96L548.426 583.894L555.798 577.926L563.167 567.586L570.535 554.532L577.904 539.486L585.273 523.014L592.642 505.866L600.011 488.838L607.382 472.58L614.751 457.518L622.12 443.866L629.488 431.669L636.857 420.861L644.226 411.299L651.595 402.823L658.966 395.253L666.335 388.425L673.704 382.199L681.073 376.469L688.441 371.183L695.81 366.355L703.182 362.125L710.55 358.825L717.919 356.907L725.288 356.611L732.657 357.521L740.026 358.525L747.395 358.643L754.763 358.065L762.132 358.275L769.503 361.053L776.872 367.353L784.241 376.975L791.61 388.827L798.979 401.257L806.348 412.355L813.719 420.335L821.088 424.015L828.456 423.171L835.825 418.663L843.194 412.241L850.563 406.053L857.932 401.659L865.303 398.955L872.672 396.537L880.041 393.705L887.41 391.247L894.778 390.037L902.147 390.205L909.516 392.471L916.887 400.057L924.256 415.729L931.625 432.265L938.994 434.57L946.363 419.979L953.731 402.659L961.103 392.885L968.472 388.991L975.84 386.831L983.209 384.667L990.578 382.199L997.947 379.515L1005.32 376.805L1012.69 374.469L1020.06 373.445L1027.42 375.039L1034.79 378.601L1042.16 380.203L1049.53 376.507L1056.9 369.253L1064.27 363.069L1071.64 359.941L1079.01 358.727L1086.38 358.169L1093.75 357.829L1101.12 357.701L1108.49 357.943L1115.86 358.661L1123.22 359.685L1130.59 360.411L1137.96 360.043L1145.33 358.117L1152.7 354.903L1160.07 351.259L1167.44 348.127L1174.81 346.087L1182.18 345.333L1189.55 345.829L1196.91 347.497L1204.29 350.247L1211.65 353.935L1219.02 358.303L1226.39 362.975L1233.76 367.487L1241.13 371.355L1248.5 374.155L1255.87 375.627L1263.24 375.697L1270.61 374.505L1277.98 372.361L1285.35 369.673L1292.71 366.899L1300.09 364.445L1307.45 362.621L1314.82 361.617L1322.19 361.589L1329.56 362.843L1336.93 366.061L1344.3 371.651L1351.67 377.733L1359.04 381.273L1366.41 382.371L1373.78 383.417L1381.15 385.453L1388.51 387.949L1395.88 390.125L1403.25 391.571L1410.62 392.203L1417.99 392.031L1425.36 391.085L1432.73 389.371L1440.1 386.879L1447.47 383.625V433.09L1440.1 440.695L1432.73 447.164L1425.36 452.36L1417.99 456.212L1410.62 458.662L1403.25 459.654L1395.88 459.194L1388.51 457.416L1381.15 454.802L1373.78 452.248L1366.41 450.408L1359.04 448.376L1351.67 443.9L1344.3 437.005L1336.93 430.845L1329.56 427.385L1322.19 426.295L1314.82 426.921L1307.45 428.967L1300.09 432.272L1292.71 436.591L1285.35 441.556L1277.98 446.684L1270.61 451.426L1263.24 455.278L1255.87 457.828L1248.5 458.844L1241.13 458.298L1233.76 456.384L1226.39 453.434L1219.02 449.884L1211.65 446.15L1204.29 442.572L1196.91 439.388L1189.55 436.744L1182.18 434.739L1174.81 433.478L1167.44 433.013L1160.07 433.213L1152.7 433.533L1145.33 433.099L1137.96 431.111L1130.59 427.358L1123.22 422.373L1115.86 417.013L1108.49 411.947L1101.12 407.407L1093.75 403.329L1086.38 399.615L1079.01 396.303L1071.64 393.869L1064.27 393.599L1056.9 396.657L1049.53 401.071L1042.16 402.223L1034.79 398.371L1027.42 392.855L1020.06 389.601L1012.69 389.233L1005.32 390.447L997.947 392.283L990.578 394.323L983.209 396.351L975.84 398.261L968.472 400.331L961.103 404.281L953.731 414.227L946.363 431.822L938.994 446.764L931.625 444.866L924.256 428.78L916.887 413.583L909.516 406.493L902.147 404.727L894.778 405.055L887.41 406.773L880.041 409.745L872.672 413.109L865.303 416.085L857.932 419.393L850.563 424.451L843.194 431.377L835.825 438.616L828.456 444.026L821.088 445.834L813.719 443.162L806.348 436.194L798.979 426.065L791.61 414.499L784.241 403.343L776.872 394.183L769.503 388.051L762.132 385.109L754.763 384.367L747.395 384.051L740.026 382.695L732.657 380.141L725.288 377.437L717.919 375.757L710.55 375.609L703.182 376.817L695.81 378.997L688.441 381.891L681.073 385.395L673.704 389.527L666.335 394.359L658.966 399.995L651.595 406.573L644.226 414.233L636.857 423.135L629.488 433.426L622.12 445.216L614.751 458.552L607.382 473.372L600.011 489.446L592.642 506.332L585.273 523.372L577.904 539.766L570.535 554.75L563.167 567.758L555.798 578.058L548.426 584L541.058 583.042L533.689 573.582L526.32 556.766L518.951 535.746L511.582 513.488L504.211 491.882L496.842 472.186L489.473 455.432L482.105 442.272L474.736 432.822L467.367 426.711L459.998 423.285L452.627 421.847L445.258 421.797L437.889 422.707L430.52 424.293L423.152 426.387L415.783 428.879L408.411 431.692L401.043 434.762L393.674 438.02L386.305 441.401L378.936 444.832L371.567 448.246L364.198 451.586L356.827 454.8L349.458 457.878L342.09 460.838L334.721 463.802L327.352 467.064L319.983 471.088L312.614 476.374L305.243 483.702L297.874 495.842L290.505 517.124L283.137 543.702L275.768 557.584L268.399 546.682L261.028 523.054L253.659 506.336L246.29 502.102L238.921 504.716L231.552 508.544L224.183 511.302L216.815 512.524L209.443 511.578L202.075 507.606L194.706 501.438L187.337 495.536L179.968 491.548L172.599 489.256L165.23 487.678L157.859 486.08L150.49 484.134L143.121 481.736L135.753 478.85L128.384 475.474L121.015 471.638L113.644 467.368L106.275 462.708L98.9061 457.72L91.5373 452.47L84.1684 447.06L76.7996 441.634L69.4308 436.403L62.0595 431.677L54.6907 427.873L47.3219 425.495L39.953 425.045L32.5842 426.755L25.2154 430.215L17.8466 434.101L10.4753 436.429L3.10647 435.471L-4.26235 430.827L-11.6312 423.819L-19 416.751V408.617Z" stroke="white" stroke-miterlimit="10"/>
<path d="M-19 367.509L-11.6312 375.025L-4.26235 382.033L3.10647 386.189L10.4753 386.157L17.8466 382.325L25.2154 376.447L32.5842 370.513L39.953 365.873L47.3219 362.963L54.6907 361.585L62.0595 361.277L69.4308 361.567L76.7996 362.083L84.1684 362.567L91.5373 362.857L98.9061 362.861L106.275 362.541L113.644 361.889L121.015 360.909L128.384 359.619L135.753 358.053L143.121 356.245L150.49 354.249L157.859 352.147L165.23 350.097L172.599 348.461L179.968 347.993L187.337 349.707L194.706 353.829L202.075 358.711L209.443 361.887L216.815 362.519L224.183 361.437L231.552 359.261L238.921 356.417L246.29 355.163L253.659 361.089L261.028 379.803L268.399 405.681L275.768 419.064L283.137 407.841L290.505 384.075L297.874 365.727L305.243 356.601L312.614 352.351L319.983 350.179L327.352 349.293L334.721 349.191L342.09 349.401L349.458 349.639L356.827 349.803L364.198 349.897L371.567 349.967L378.936 350.093L386.305 350.363L393.674 350.879L401.043 351.719L408.411 352.957L415.783 354.637L423.152 356.763L430.52 359.309L437.889 362.215L445.258 365.375L452.627 368.683L459.998 372.039L467.367 375.375L474.736 378.707L482.105 382.141L489.473 385.875L496.842 390.183L504.211 395.441L511.582 402.167L518.951 410.777L526.32 420.785L533.689 430L541.058 435.348L548.426 435.23L555.798 430.594L563.167 423.453L570.535 415.163L577.904 406.389L585.273 397.685L592.642 389.709L600.011 382.975L607.382 377.679L614.751 373.711L622.12 370.739L629.488 368.367L636.857 366.227L644.226 364.035L651.595 361.617L658.966 358.887L666.335 355.837L673.704 352.489L681.073 348.907L688.441 345.169L695.81 341.391L703.182 337.793L710.55 334.747L717.919 332.735L725.288 332.031L732.657 332.245L740.026 332.295L747.395 331.245L754.763 329.335L762.132 328.101L769.503 329.383L776.872 334.203L784.241 342.425L791.61 353.019L798.979 364.375L806.348 374.633L813.719 382.035L821.088 385.417L828.456 384.557L835.825 380.311L843.194 374.413L850.563 368.987L857.932 365.553L865.303 363.975L872.672 362.807L880.041 361.315L887.41 360.253L894.778 360.457L902.147 362.043L909.516 365.703L916.887 374.649L924.256 391.637L931.625 409.445L938.994 412.981L946.363 399.583L953.731 383.415L961.103 374.771L968.472 371.981L975.84 370.911L983.209 369.821L990.578 368.415L997.947 366.771L1005.32 365.091L1012.69 363.759L1020.06 363.717L1027.42 366.257L1034.79 370.729L1042.16 373.193L1049.53 370.311L1056.9 363.819L1064.27 358.339L1071.64 355.847L1079.01 355.199L1086.38 355.089L1093.75 354.971L1101.12 354.599L1108.49 353.791L1115.86 352.385L1123.22 350.401L1130.59 348.143L1137.96 346.123L1145.33 344.771L1152.7 344.153L1160.07 343.985L1167.44 343.973L1174.81 344.059L1182.18 344.453L1189.55 345.461L1196.91 347.325L1204.29 350.145L1211.65 353.855L1219.02 358.231L1226.39 362.903L1233.76 367.399L1241.13 371.239L1248.5 373.997L1255.87 375.391L1263.24 375.349L1270.61 373.985L1277.98 371.583L1285.35 368.529L1292.71 365.237L1300.09 362.057L1307.45 359.241L1314.82 356.917L1322.19 355.155L1329.56 354.183L1336.93 354.613L1344.3 356.793L1351.67 358.809L1359.04 357.629L1366.41 353.411L1373.78 348.653L1381.15 344.571L1388.51 340.857L1395.88 336.997L1403.25 332.883L1410.62 328.727L1417.99 324.809L1425.36 321.379L1432.73 318.579L1440.1 316.453L1447.47 314.977L1440.1 316.453L1432.73 318.579L1425.36 321.379L1417.99 324.809L1410.62 328.727L1403.25 332.883L1395.88 336.997L1388.51 340.857L1381.15 344.571L1373.78 348.653L1366.41 353.411L1359.04 357.629L1351.67 358.809L1344.3 356.793L1336.93 354.613L1329.56 354.183L1322.19 355.155L1314.82 356.917L1307.45 359.241L1300.09 362.057L1292.71 365.237L1285.35 368.529L1277.98 371.583L1270.61 373.985L1263.24 375.349L1255.87 375.391L1248.5 373.997L1241.13 371.239L1233.76 367.399L1226.39 362.903L1219.02 358.231L1211.65 353.859L1204.29 350.155L1196.91 347.381L1189.55 345.681L1182.18 345.145L1174.81 345.849L1167.44 347.817L1160.07 350.867L1152.7 354.407L1145.33 357.497L1137.96 359.271L1130.59 359.451L1123.22 358.501L1115.86 357.215L1108.49 356.187L1101.12 355.593L1093.75 355.311L1086.38 355.193L1079.01 355.233L1071.64 355.873L1064.27 358.377L1056.9 363.877L1049.53 370.401L1042.16 373.323L1034.79 370.917L1027.42 366.523L1020.06 364.089L1012.69 364.269L1005.32 365.781L997.947 367.699L990.578 369.641L983.209 371.423L975.84 372.985L968.472 374.633L961.103 378.121L953.731 387.601L946.363 404.749L938.994 419.291L931.625 417.065L924.256 400.737L916.887 385.385L909.516 378.241L902.147 376.511L894.778 376.965L887.41 378.871L880.041 382.085L872.672 385.713L865.303 388.951L857.932 392.483L850.563 397.693L843.194 404.673L835.825 411.849L828.456 417.057L821.088 418.53L813.719 415.393L806.348 407.857L798.979 397.099L791.61 384.885L784.241 373.107L776.872 363.411L769.503 356.875L762.132 353.687L754.763 352.879L747.395 352.671L740.026 351.569L732.657 349.389L725.288 347.107L717.919 345.841L710.55 346.013L703.182 347.373L695.81 349.443L688.441 351.857L681.073 354.403L673.704 356.953L666.335 359.417L658.966 361.733L651.595 363.847L644.226 365.769L636.857 367.565L629.488 369.397L622.12 371.557L614.751 374.433L607.382 378.483L600.011 384.163L592.642 391.791L585.273 401.499L577.904 413.151L570.535 426.492L563.167 441.152L555.798 456.312L548.426 469.914L541.058 478.77L533.689 480.47L526.32 475.302L518.951 465.602L511.582 453.668L504.211 440.894L496.842 428.254L489.473 416.675L482.105 406.871L474.736 399.125L467.367 393.293L459.998 388.981L452.627 385.735L445.258 383.189L437.889 381.099L430.52 379.345L423.152 377.887L415.783 376.719L408.411 375.859L401.043 375.309L393.674 375.063L386.305 375.105L378.936 375.421L371.567 375.975L364.198 376.745L356.827 377.717L349.458 378.893L342.09 380.307L334.721 382.085L327.352 384.523L319.983 388.077L312.614 393.233L305.243 400.757L297.874 413.389L290.505 435.44L283.137 463.038L275.768 478.156L268.399 468.68L261.028 446.64L253.659 431.644L246.29 429.242L238.921 433.774L231.552 439.582L224.183 444.368L216.815 447.65L209.443 448.772L202.075 446.878L194.706 442.776L187.337 438.92L179.968 436.96L172.599 436.66L165.23 437.032L157.859 437.332L150.49 437.238L143.121 436.624L135.753 435.452L128.384 433.718L121.015 431.432L113.644 428.62L106.275 425.32L98.9061 421.573L91.5373 417.447L84.1684 413.033L76.7996 408.467L69.4308 403.947L62.0595 399.775L54.6907 396.353L47.3219 394.181L39.953 393.739L32.5842 395.243L25.2154 398.267L17.8466 401.467L10.4753 402.849L3.10647 400.657L-4.26235 394.505L-11.6312 385.713L-19 376.625V367.509Z" stroke="white" stroke-miterlimit="10"/>
<path d="M-19 304.653L-11.6312 304.607L-4.26235 304.665L3.10647 303.329L10.4753 299.845L17.8466 294.701L25.2154 289.241L32.5842 284.717L39.953 281.655L47.3219 279.865L54.6907 278.837L62.0595 278.095L69.4308 277.341L76.7996 276.469L84.1684 275.469L91.5373 274.371L98.9061 273.213L106.275 272.037L113.644 270.883L121.015 269.787L128.384 268.783L135.753 267.905L143.121 267.187L150.49 266.671L157.859 266.421L165.23 266.565L172.599 267.427L179.968 269.723L187.337 274.417L194.706 281.687L202.075 289.831L209.443 296.335L216.815 300.315L224.183 302.553L231.552 303.577L238.921 303.327L246.29 301.623L253.659 296.901L261.028 286.147L268.399 271.463L275.768 264.635L283.137 273.163L290.505 289.031L297.874 301.945L305.243 310.055L312.614 315.539L319.983 319.703L327.352 322.899L334.721 325.391L342.09 327.449L349.458 329.241L356.827 330.855L364.198 332.331L371.567 333.741L378.936 335.159L386.305 336.671L393.674 338.375L401.043 340.355L408.411 342.675L415.783 345.375L423.152 348.457L430.52 351.883L437.889 355.571L445.258 359.383L452.627 363.133L459.998 366.583L467.367 369.447L474.736 371.401L482.105 372.105L489.473 371.253L496.842 368.667L504.211 364.491L511.582 359.429L518.951 354.659L526.32 351.065L533.689 348.237L541.058 344.951L548.426 341.075L555.798 338.247L563.167 338.177L570.535 341.033L577.904 345.725L585.273 350.955L592.642 355.827L600.011 359.839L607.382 362.807L614.751 364.697L622.12 365.587L629.488 365.583L636.857 364.791L644.226 363.315L651.595 361.245L658.966 358.671L666.335 355.671L673.704 352.327L681.073 348.721L688.441 344.943L695.81 341.111L703.182 337.443L710.55 334.315L717.919 332.201L725.288 331.381L732.657 331.455L740.026 331.337L747.395 330.091L754.763 327.947L762.132 326.447L769.503 327.419L776.872 331.887L784.241 339.707L791.61 349.843L798.979 360.687L806.348 370.375L813.719 377.145L821.088 379.833L828.456 378.211L835.825 373.141L843.194 366.351L850.563 359.973L857.932 355.527L865.303 352.883L872.672 350.605L880.041 347.965L887.41 345.715L894.778 344.719L902.147 345.095L909.516 347.549L916.887 355.303L924.256 371.131L931.625 387.819L938.994 390.291L946.363 375.897L953.731 358.811L961.103 349.327L968.472 345.777L975.84 344.019L983.209 342.309L990.578 340.329L997.947 338.125L1005.32 335.863L1012.69 333.887L1020.06 333.087L1027.42 334.701L1034.79 338.029L1042.16 339.095L1049.53 334.541L1056.9 326.091L1064.27 318.415L1071.64 313.539L1079.01 310.411L1086.38 307.849L1093.75 305.439L1101.12 303.083L1108.49 300.715L1115.86 298.301L1123.22 295.925L1130.59 293.917L1137.96 292.773L1145.33 292.859L1152.7 294.121L1160.07 296.161L1167.44 298.533L1174.81 301.037L1182.18 303.763L1189.55 306.911L1196.91 310.661L1204.29 315.079L1211.65 320.091L1219.02 325.485L1226.39 330.931L1233.76 336.005L1241.13 340.275L1248.5 343.369L1255.87 345.053L1263.24 345.287L1270.61 344.221L1277.98 342.163L1285.35 339.511L1292.71 336.687L1300.09 334.047L1307.45 331.843L1314.82 330.199L1322.19 329.179L1329.56 329.003L1336.93 330.285L1344.3 333.351L1351.67 336.293L1359.04 336.063L1366.41 332.817L1373.78 329.043L1381.15 325.953L1388.51 323.235L1395.88 320.363L1403.25 317.231L1410.62 314.035L1417.99 311.063L1425.36 308.543L1432.73 306.621L1440.1 305.335L1447.47 304.655V304.967L1440.1 305.733L1432.73 307.127L1425.36 309.177L1417.99 311.853L1410.62 315.017L1403.25 318.431L1395.88 321.821L1388.51 324.997L1381.15 328.059L1373.78 331.547L1366.41 335.757L1359.04 339.495L1351.67 340.265L1344.3 337.909L1336.93 335.471L1329.56 334.861L1322.19 335.737L1314.82 337.479L1307.45 339.857L1300.09 342.799L1292.71 346.163L1285.35 349.691L1277.98 353.007L1270.61 355.675L1263.24 357.289L1255.87 357.523L1248.5 356.219L1241.13 353.407L1233.76 349.317L1226.39 344.309L1219.02 338.825L1211.65 333.279L1204.29 328.009L1196.91 323.235L1189.55 319.035L1182.18 315.355L1174.81 312.035L1167.44 308.875L1160.07 305.813L1152.7 303.055L1145.33 301.055L1137.96 300.235L1130.59 300.653L1123.22 301.953L1115.86 303.653L1108.49 305.427L1101.12 307.197L1093.75 309.001L1086.38 310.907L1079.01 313.017L1071.64 315.739L1064.27 320.259L1056.9 327.623L1049.53 335.803L1042.16 340.127L1034.79 338.865L1027.42 335.373L1020.06 333.623L1012.69 334.315L1005.32 336.197L997.947 338.385L990.578 340.529L983.209 342.463L975.84 344.139L968.472 345.865L961.103 349.393L953.731 358.861L946.363 375.935L938.994 390.321L931.625 387.841L924.256 371.145L916.887 355.313L909.516 347.559L902.147 345.101L894.778 344.725L887.41 345.721L880.041 347.967L872.672 350.611L865.303 352.889L857.932 355.529L850.563 359.975L843.194 366.353L835.825 373.143L828.456 378.213L821.088 379.835L813.719 377.147L806.348 370.377L798.979 360.689L791.61 349.845L784.241 339.709L776.872 331.889L769.503 327.421L762.132 326.449L754.763 327.949L747.395 330.093L740.026 331.339L732.657 331.457L725.288 331.383L717.919 332.203L710.55 334.317L703.182 337.445L695.81 341.113L688.441 344.945L681.073 348.723L673.704 352.329L666.335 355.673L658.966 358.673L651.595 361.247L644.226 363.317L636.857 364.793L629.488 365.585L622.12 365.593L614.751 364.699L607.382 362.809L600.011 359.845L592.642 355.829L585.273 350.961L577.904 345.731L570.535 341.039L563.167 338.183L555.798 338.257L548.426 341.085L541.058 344.961L533.689 348.251L526.32 351.087L518.951 354.689L511.582 359.463L504.211 364.537L496.842 368.729L489.473 371.335L482.105 372.207L474.736 371.531L467.367 369.613L459.998 366.797L452.627 363.403L445.258 359.723L437.889 355.993L430.52 352.407L423.152 349.107L415.783 346.181L408.411 343.665L401.043 341.571L393.674 339.861L386.305 338.475L378.936 337.343L371.567 336.379L364.198 335.501L356.827 334.645L349.458 333.773L342.09 332.897L334.721 332.127L327.352 331.755L319.983 332.223L312.614 333.669L305.243 334.841L297.874 332.063L290.505 321.013L283.137 303.721L275.768 292.795L268.399 298.521L261.028 314.119L253.659 327.323L246.29 335.331L238.921 340.733L231.552 344.905L224.183 347.951L216.815 349.881L209.443 350.111L202.075 347.807L194.706 343.795L187.337 340.529L179.968 339.651L172.599 340.925L165.23 343.331L157.859 346.109L150.49 348.891L143.121 351.523L135.753 353.917L128.384 356.019L121.015 357.793L113.644 359.211L106.275 360.253L98.9061 360.917L91.5373 361.213L84.1684 361.189L76.7996 360.935L69.4308 360.619L62.0595 360.497L54.6907 360.947L47.3219 362.443L39.953 365.455L32.5842 370.181L25.2154 376.181L17.8466 382.119L10.4753 385.995L3.10647 386.061L-4.26235 381.933L-11.6312 374.945L-19 367.427V304.653Z" stroke="white" stroke-miterlimit="10"/>
<path d="M-19 280.855L-11.6312 279.317L-4.26235 277.481L3.10647 273.895L10.4753 267.857L17.8466 259.933L25.2154 251.541L32.5842 244.027L39.953 238.021L47.3219 233.441L54.6907 229.875L62.0595 226.937L69.4308 224.419L76.7996 222.271L84.1684 220.519L91.5373 219.197L98.9061 218.325L106.275 217.889L113.644 217.847L121.015 218.125L128.384 218.629L135.753 219.253L143.121 219.883L150.49 220.417L157.859 220.769L165.23 220.853L172.599 220.461L179.968 219.111L187.337 216.415L194.706 213.423L202.075 213.115L209.443 217.563L216.815 224.811L224.183 230.493L231.552 231.977L238.921 229.677L246.29 224.981L253.659 217.289L261.028 203.913L268.399 187.017L275.768 178.373L283.137 185.419L290.505 200.067L297.874 211.949L305.243 219.139L312.614 223.767L319.983 227.109L327.352 229.505L334.721 231.225L342.09 232.551L349.458 233.655L356.827 234.605L364.198 235.405L371.567 236.039L378.936 236.473L386.305 236.659L393.674 236.539L401.043 236.065L408.411 235.195L415.783 233.919L423.152 232.257L430.52 230.269L437.889 228.043L445.258 225.675L452.627 223.249L459.998 220.801L467.367 218.307L474.736 215.649L482.105 212.623L489.473 208.957L496.842 204.357L504.211 198.541L511.582 191.189L518.951 182.055L526.32 171.683L533.689 162.347L541.058 157.269L548.426 157.875L555.798 162.517L563.167 168.541L570.535 174.547L577.904 180.337L585.273 185.913L592.642 191.109L600.011 195.735L607.382 199.725L614.751 203.131L622.12 206.071L629.488 208.679L636.857 211.077L644.226 213.359L651.595 215.593L658.966 217.827L666.335 220.095L673.704 222.415L681.073 224.795L688.441 227.235L695.81 229.717L703.182 232.197L710.55 234.589L717.919 236.767L725.288 238.641L732.657 240.299L740.026 242.065L747.395 244.281L754.763 246.939L762.132 249.567L769.503 251.525L776.872 252.351L784.241 251.935L791.61 250.533L798.979 248.705L806.348 247.213L813.719 246.823L821.088 248.045L828.456 250.945L835.825 255.185L843.194 260.311L850.563 266.035L857.932 271.975L865.303 276.961L872.672 279.393L880.041 278.961L887.41 277.097L894.778 275.297L902.147 273.907L909.516 272.279L916.887 268.897L924.256 262.199L931.625 254.593L938.994 252.927L946.363 258.271L953.731 264.301L961.103 267.267L968.471 267.939L975.84 267.805L983.209 267.483L990.578 267.121L997.947 266.797L1005.32 266.643L1012.69 266.973L1020.06 268.643L1027.42 272.863L1034.79 278.905L1042.16 282.763L1049.53 281.043L1056.9 275.449L1064.27 270.607L1071.64 268.519L1079.01 268.101L1086.38 268.133L1093.75 268.175L1101.12 268.097L1108.49 267.811L1115.86 267.247L1123.22 266.467L1130.59 265.765L1137.96 265.597L1145.33 266.261L1152.7 267.615L1160.07 269.111L1167.44 270.111L1174.81 270.177L1182.18 269.111L1189.55 266.857L1196.91 263.407L1204.29 258.815L1211.66 253.251L1219.02 247.053L1226.39 240.725L1233.76 234.889L1241.13 230.187L1248.5 227.161L1255.87 226.143L1263.24 227.181L1270.61 230.027L1277.98 234.195L1285.35 239.071L1292.71 244.025L1300.09 248.521L1307.45 252.151L1314.82 254.667L1322.19 256.021L1329.56 256.517L1336.93 256.999L1344.3 258.163L1351.67 258.547L1359.04 255.655L1366.41 250.227L1373.78 245.289L1381.15 242.465L1388.51 241.649L1395.88 242.261L1403.25 243.911L1410.62 246.367L1417.99 249.439L1425.36 252.953L1432.73 256.765L1440.1 260.763L1447.47 264.895V284.225L1440.1 282.855L1432.73 281.951L1425.36 281.515L1417.99 281.557L1410.62 282.075L1403.25 283.061L1395.88 284.515L1388.51 286.505L1381.15 289.313L1373.78 293.479L1366.41 299.153L1359.04 304.817L1351.67 307.595L1344.3 306.895L1336.93 305.353L1329.56 304.521L1322.19 303.755L1314.82 302.219L1307.45 299.587L1300.09 295.865L1292.71 291.265L1285.35 286.155L1277.98 281.051L1270.61 276.565L1263.24 273.315L1255.87 271.795L1248.5 272.265L1241.13 274.701L1233.76 278.793L1226.39 284.021L1219.02 289.767L1211.66 295.435L1204.29 300.537L1196.91 304.755L1189.55 307.943L1182.18 310.057L1174.89 311.103L1167.52 311.165L1160.15 310.435L1152.78 309.353L1145.41 308.545L1138.05 308.553L1130.68 309.499L1123.31 311.057L1115.94 312.741L1108.57 314.225L1101.2 315.401L1093.83 316.295L1086.46 316.947L1079.09 317.439L1071.72 318.161L1064.35 320.293L1056.99 324.883L1049.61 329.899L1042.25 330.699L1034.88 325.577L1027.51 317.937L1020.14 311.805L1012.77 307.941L1005.4 305.183L998.031 302.719L990.662 300.297L983.293 297.847L975.924 295.355L968.555 292.729L961.186 289.411L953.815 283.963L946.446 275.665L939.078 268.309L931.709 268.259L924.34 274.479L916.971 280.157L909.6 282.925L902.231 284.377L894.862 286.057L887.493 288.635L880.125 291.761L872.756 293.919L865.387 293.623L858.016 291.087L850.647 287.799L843.278 284.795L835.909 282.325L828.54 280.567L821.171 279.901L813.803 280.641L806.431 282.755L799.062 285.811L791.694 289.151L784.325 292.135L776.956 294.317L769.587 295.531L762.216 295.941L754.847 296.027L747.478 296.409L740.109 297.523L732.741 299.315L725.372 301.373L718.003 303.311L710.634 304.967L703.265 306.373L695.894 307.591L688.525 308.657L681.156 309.571L673.788 310.301L666.419 310.813L659.05 311.059L651.679 310.993L644.31 310.547L636.941 309.657L629.572 308.231L622.203 306.165L614.835 303.329L607.466 299.591L600.094 294.829L592.726 289.009L585.357 282.211L577.988 274.645L570.619 266.501L563.25 257.807L555.881 248.795L548.51 240.901L541.141 236.815L533.773 238.225L526.404 243.747L519.035 250.195L511.666 255.337L504.295 258.667L496.926 260.467L489.557 261.089L482.188 260.849L474.82 260.065L467.451 259.035L460.082 257.985L452.711 257.047L445.342 256.263L437.973 255.603L430.604 254.993L423.235 254.337L415.866 253.553L408.495 252.579L401.126 251.389L393.758 249.989L386.389 248.409L379.02 246.695L371.651 244.893L364.282 243.039L356.911 241.159L349.542 239.257L342.173 237.317L334.804 235.263L327.436 232.913L320.067 229.971L312.698 226.159L305.327 221.129L297.958 213.597L290.589 201.427L283.22 186.535L275.851 179.285L268.483 187.759L261.111 204.513L253.743 217.771L246.374 225.367L239.005 229.985L231.636 232.221L224.267 230.685L216.898 224.961L209.527 217.679L202.158 213.205L194.789 213.493L187.421 216.467L180.052 219.151L172.683 220.491L165.314 220.875L157.943 220.787L150.574 220.429L143.205 219.891L135.836 219.259L128.468 218.635L121.099 218.131L113.728 217.855L106.359 217.903L98.9899 218.345L91.621 219.227L84.2522 220.561L76.8834 222.333L69.5146 224.503L62.1433 227.051L54.7745 230.031L47.4056 233.653L40.0368 238.303L32.668 244.399L25.2992 252.029L17.9303 260.569L10.5591 268.677L3.19023 274.943L-4.17859 278.811L-11.5474 280.991L-19 282.953V280.855Z" stroke="white" stroke-miterlimit="10"/>
<path d="M-19 1.28809L-11.6312 4.73811L-4.26235 8.12014L3.10647 13.6022L10.4753 22.7982L17.8466 35.5822L25.2154 50.0163L32.5842 63.4743L39.953 74.0063L47.3219 80.9584L54.6907 84.6884L62.0595 85.9344L69.4308 85.3744L76.7996 83.5004L84.1684 80.6624L91.5373 77.1343L98.9061 73.1763L106.275 69.0463L113.644 65.0103L121.015 61.3283L128.384 58.2403L135.753 55.9523L143.121 54.6203L150.49 54.3383L157.859 55.1043L165.23 56.7243L172.599 58.5763L179.968 59.2703L187.337 56.9383L194.706 50.9123L202.075 43.1882L209.443 36.9002L216.815 33.7602L224.183 34.3542L231.552 39.4702L238.921 49.1063L246.29 60.6163L253.659 68.3163L261.028 66.1543L268.399 55.6963L275.768 50.1063L283.137 58.7803L290.505 75.1544L297.874 89.6384L305.243 100.46L312.614 109.524L319.983 117.73L327.352 125.046L334.721 131.471L342.09 137.149L349.458 142.225L356.827 146.807L364.198 150.971L371.567 154.751L378.936 158.139L386.305 161.079L393.674 163.491L401.043 165.293L408.411 166.433L415.783 166.907L423.152 166.777L430.52 166.163L437.889 165.233L445.258 164.175L452.627 163.155L459.998 162.283L467.367 161.575L474.736 160.929L482.105 160.123L489.473 158.843L496.842 156.733L504.211 153.437L511.582 148.561L518.951 141.793L526.32 133.621L533.689 126.279L541.058 122.969L548.426 125.107L555.798 131.049L563.167 138.153L570.535 145.033L577.904 151.509L585.273 157.597L592.642 163.143L600.011 167.975L607.382 172.029L614.751 175.363L622.12 178.101L629.488 180.379L636.857 182.321L644.226 184.023L651.595 185.557L658.966 186.971L666.335 188.301L673.704 189.567L681.073 190.781L688.441 191.947L695.81 193.051L703.182 194.053L710.55 194.873L717.919 195.391L725.288 195.521L732.657 195.359L740.026 195.233L747.395 195.495L754.763 196.141L762.132 196.707L769.503 196.561L776.872 195.245L784.241 192.659L791.61 189.065L798.979 185.031L806.348 181.329L813.719 178.733L821.088 177.755L828.456 178.421L835.825 180.147L843.194 181.731L850.563 181.661L857.932 179.293L865.303 176.225L872.672 175.411L880.041 177.899L887.41 181.573L894.778 183.805L902.147 183.847L909.516 182.067L916.887 177.969L924.256 170.407L931.625 161.863L938.994 159.187L946.363 163.491L953.731 168.561L961.103 170.827L968.472 171.283L975.84 171.631L983.209 172.629L990.578 174.329L997.947 176.137L1005.32 176.199L1012.69 170.811L1020.06 155.815L1027.42 131.181L1034.79 104.704L1042.16 89.3944L1049.53 95.0004L1056.9 120.441L1064.27 154.283L1071.64 183.255L1079.01 201.083L1086.38 209.475L1093.75 212.745L1101.12 213.869L1108.49 214.057L1115.86 213.607L1123.22 212.625L1130.59 211.359L1137.96 210.191L1145.33 209.359L1152.7 208.695L1160.07 207.695L1167.44 205.859L1174.81 202.983L1182.18 199.191L1189.55 194.767L1196.91 190.011L1204.29 185.167L1211.65 180.439L1219.02 176.031L1226.39 172.179L1233.76 169.159L1241.13 167.259L1248.5 166.705L1255.87 167.563L1263.24 169.671L1270.61 172.633L1277.98 175.907L1285.35 178.973L1292.71 181.511L1300.09 183.489L1307.45 185.101L1314.82 186.475L1322.19 187.027L1329.56 184.481L1336.93 175.483L1344.3 160.671L1351.67 148.859L1359.04 149.897L1366.41 162.561L1373.78 176.245L1381.15 184.167L1388.51 187.503L1395.88 189.507L1403.25 191.825L1410.62 194.773L1417.99 198.209L1425.36 201.911L1432.73 205.673L1440.1 209.327L1447.47 212.777V216.367L1440.1 212.425L1432.73 208.333L1425.36 204.187L1417.99 200.147L1410.62 196.415L1403.25 193.211L1395.88 190.671L1388.51 188.477L1381.15 184.977L1373.78 176.915L1366.41 163.113L1359.04 150.351L1351.67 149.231L1344.3 160.973L1336.93 175.729L1329.56 184.679L1322.19 187.185L1314.82 186.601L1307.45 185.201L1300.09 183.569L1292.71 181.573L1285.35 179.023L1277.98 175.945L1270.61 172.661L1263.24 169.693L1255.87 167.579L1248.5 166.717L1241.13 167.269L1233.76 169.165L1226.39 172.183L1219.02 176.033L1211.65 180.441L1204.29 185.167L1196.91 190.011L1189.55 194.767L1182.18 199.191L1174.81 202.983L1167.44 205.859L1160.07 207.695L1152.7 208.695L1145.33 209.359L1137.96 210.191L1130.59 211.359L1123.22 212.625L1115.86 213.607L1108.49 214.057L1101.12 213.869L1093.75 212.745L1086.38 209.475L1079.01 201.083L1071.64 183.255L1064.27 154.283L1056.9 120.441L1049.53 95.0004L1042.16 89.3944L1034.79 104.704L1027.42 131.181L1020.06 155.815L1012.69 170.811L1005.32 176.199L997.947 176.137L990.578 174.329L983.209 172.629L975.84 171.631L968.472 171.283L961.103 170.827L953.731 168.561L946.363 163.491L938.994 159.187L931.625 161.863L924.256 170.409L916.887 177.999L909.516 182.273L902.147 184.849L894.778 187.297L887.41 190.293L880.041 193.507L872.672 195.445L865.303 194.665L857.932 191.463L850.563 187.421L843.194 183.683L835.825 180.621L828.456 178.501L821.088 177.763L813.719 178.731L806.348 181.325L798.979 185.027L791.61 189.061L784.241 192.655L776.872 195.241L769.503 196.557L762.132 196.703L754.763 196.137L747.395 195.491L740.026 195.229L732.657 195.355L725.288 195.517L717.919 195.387L710.55 194.869L703.182 194.049L695.81 193.047L688.441 191.943L681.073 190.777L673.704 189.563L666.335 188.297L658.966 186.967L651.595 185.553L644.226 184.019L636.857 182.317L629.488 180.375L622.12 178.097L614.751 175.359L607.382 172.025L600.011 167.971L592.642 163.139L585.273 157.593L577.904 151.505L570.535 145.029L563.167 138.149L555.798 131.045L548.426 125.103L541.058 122.965L533.689 126.275L526.32 133.617L518.951 141.789L511.582 148.557L504.211 153.433L496.842 156.729L489.473 158.839L482.105 160.121L474.736 160.927L467.367 161.573L459.998 162.281L452.627 163.155L445.258 164.177L437.889 165.239L430.52 166.175L423.152 166.799L415.783 166.945L408.411 166.495L401.043 165.399L393.674 163.677L386.305 161.409L378.936 158.723L371.567 155.773L364.198 152.719L356.827 149.709L349.458 146.861L342.09 144.245L334.721 141.845L327.352 139.505L319.983 136.919L312.614 133.763L305.243 129.613L297.874 123.056L290.505 111.734L283.137 97.1324L275.768 88.7964L268.399 93.4984L261.028 102.246L253.659 102.372L246.29 92.7764L238.921 79.8583L231.552 69.4783L224.183 64.3003L216.815 64.2103L209.443 68.2363L202.075 75.5784L194.706 84.3364L187.337 91.2164L179.968 94.1124L172.599 93.6224L165.23 91.5844L157.859 89.3924L150.49 87.6984L143.121 86.7464L135.753 86.6104L128.384 87.2804L121.015 88.6964L113.644 90.7504L106.275 93.3064L98.9061 96.2084L91.5373 99.2924L84.1684 102.384L76.7996 105.31L69.4308 107.86L62.0595 109.738L54.6907 110.488L47.3219 109.444L39.953 105.862L32.5842 99.3544L25.2154 90.5184L17.8466 81.2264L10.4753 74.0043L3.10647 70.6643L-4.26235 71.1883L-11.6312 73.8063L-19 76.1783V1.28809Z" stroke="white" stroke-miterlimit="10"/>
</g>
</svg>
